<?xml version="1.0" encoding="UTF-8" standalone="no"?>
<svg
   fill="#f0c700"
   width="800px"
   height="800px"
   viewBox="0 0 36 36"
   version="1.1"
   preserveAspectRatio="xMidYMid meet"
   id="svg99"
   sodipodi:docname="bookmarkicon3.svg"
   inkscape:version="1.3.2 (091e20e, 2023-11-25, custom)"
   xml:space="preserve"
   xmlns:inkscape="http://www.inkscape.org/namespaces/inkscape"
   xmlns:sodipodi="http://sodipodi.sourceforge.net/DTD/sodipodi-0.dtd"
   xmlns="http://www.w3.org/2000/svg"
   xmlns:svg="http://www.w3.org/2000/svg"
   xmlns:rdf="http://www.w3.org/1999/02/22-rdf-syntax-ns#"
   xmlns:cc="http://creativecommons.org/ns#"
   xmlns:dc="http://purl.org/dc/elements/1.1/"><metadata
     id="metadata105"><rdf:RDF><cc:Work
         rdf:about=""><dc:format>image/svg+xml</dc:format><dc:type
           rdf:resource="http://purl.org/dc/dcmitype/StillImage" /></cc:Work></rdf:RDF></metadata><defs
     id="defs103" /><sodipodi:namedview
     pagecolor="#ffffff"
     bordercolor="#666666"
     borderopacity="1"
     objecttolerance="10"
     gridtolerance="10"
     guidetolerance="10"
     inkscape:pageopacity="0"
     inkscape:pageshadow="2"
     inkscape:window-width="2560"
     inkscape:window-height="1351"
     id="namedview101"
     showgrid="false"
     inkscape:zoom="0.51839766"
     inkscape:cx="199.65368"
     inkscape:cy="531.4453"
     inkscape:window-x="-9"
     inkscape:window-y="-9"
     inkscape:window-maximized="1"
     inkscape:current-layer="layer3"
     inkscape:document-rotation="0"
     inkscape:showpageshadow="2"
     inkscape:pagecheckerboard="0"
     inkscape:deskcolor="#d1d1d1" /><g
     id="SVGRepo_bgCarrier"
     stroke-width="0" /><g
     id="SVGRepo_tracerCarrier"
     stroke-linecap="round"
     stroke-linejoin="round" /><g
     id="SVGRepo_iconCarrier"
     style="display:none"
     inkscape:label="#SVGRepo_iconCarrier"><title
       id="title92">bookmark-solid</title><rect
       x="0"
       y="0"
       width="36"
       height="36"
       fill-opacity="0"
       id="rect96" /><g
       style="fill:#000000"
       id="g1736"
       transform="matrix(0.05429721,0,0,0.05429721,-36.103124,-4.0395563)"><g
         id="SVGRepo_bgCarrier-5"
         stroke-width="0" /><g
         id="SVGRepo_tracerCarrier-1"
         stroke-linecap="round"
         stroke-linejoin="round" /></g><g
       inkscape:groupmode="layer"
       id="layer2"
       inkscape:label="Layer 1"
       style="display:inline"><g
         id="g1739"
         style="display:inline"
         transform="translate(0.47244918,0.19954036)"><path
           class="clr-i-solid clr-i-solid-path-1"
           d="m 29.196416,2.1736119 h -16 c -1.104569,0 -2,0.8954305 -2,2 V 32.103612 c -0.0014,1.786537 2.161918,2.678442 3.42,1.41 l 6.54,-6.52 6.63,6.6 c 1.262181,1.254694 3.411412,0.359706 3.41,-1.42 V 4.1736119 c 0,-1.1045695 -0.89543,-2 -2,-2 z"
           id="path94"
           sodipodi:nodetypes="ssscccccss"
           style="stroke-width:0.99999;stroke-miterlimit:4;stroke-dasharray:none" /></g></g></g><g
     inkscape:groupmode="layer"
     id="layer3"
     inkscape:label="Layer 2"
     style="display:inline"><g
       style="fill:#ef3535;fill-opacity:1"
       id="g1"
       transform="matrix(0.82648406,0,0,0.86275738,1.3162513,1.8647864)"><path
         d="m 16.042,8.345 c 0,0 -2,-4.262 -6.5,-4.262 -4.917,0 -7.5,4.167 -7.5,8.333 0,6.917 14,15.5 14,15.5 0,0 13.916,-8.5 13.916,-15.5 0,-4.25 -2.666,-8.333 -7.416,-8.333 -4.75,0 -6.5,4.262 -6.5,4.262 z"
         id="path1"
         style="fill:#ef3535;fill-opacity:1" /></g></g></svg>
