<?xml version="1.0" encoding="UTF-8" standalone="no"?>
<svg
   fill="#f0c700"
   width="800px"
   height="800px"
   viewBox="0 0 36 36"
   version="1.1"
   preserveAspectRatio="xMidYMid meet"
   id="svg99"
   sodipodi:docname="bookmarkicon2.svg"
   inkscape:version="1.3.2 (091e20e, 2023-11-25, custom)"
   xmlns:inkscape="http://www.inkscape.org/namespaces/inkscape"
   xmlns:sodipodi="http://sodipodi.sourceforge.net/DTD/sodipodi-0.dtd"
   xmlns="http://www.w3.org/2000/svg"
   xmlns:svg="http://www.w3.org/2000/svg"
   xmlns:rdf="http://www.w3.org/1999/02/22-rdf-syntax-ns#"
   xmlns:cc="http://creativecommons.org/ns#"
   xmlns:dc="http://purl.org/dc/elements/1.1/">
  <metadata
     id="metadata105">
    <rdf:RDF>
      <cc:Work
         rdf:about="">
        <dc:format>image/svg+xml</dc:format>
        <dc:type
           rdf:resource="http://purl.org/dc/dcmitype/StillImage" />
        <dc:title />
      </cc:Work>
    </rdf:RDF>
  </metadata>
  <defs
     id="defs103" />
  <sodipodi:namedview
     pagecolor="#ffffff"
     bordercolor="#666666"
     borderopacity="1"
     objecttolerance="10"
     gridtolerance="10"
     guidetolerance="10"
     inkscape:pageopacity="0"
     inkscape:pageshadow="2"
     inkscape:window-width="2560"
     inkscape:window-height="1351"
     id="namedview101"
     showgrid="false"
     inkscape:zoom="0.51839766"
     inkscape:cx="195.79564"
     inkscape:cy="529.51628"
     inkscape:window-x="-9"
     inkscape:window-y="-9"
     inkscape:window-maximized="1"
     inkscape:current-layer="layer3"
     inkscape:document-rotation="0"
     inkscape:showpageshadow="2"
     inkscape:pagecheckerboard="0"
     inkscape:deskcolor="#d1d1d1" />
  <g
     id="SVGRepo_bgCarrier"
     stroke-width="0" />
  <g
     id="SVGRepo_tracerCarrier"
     stroke-linecap="round"
     stroke-linejoin="round" />
  <g
     id="SVGRepo_iconCarrier"
     style="display:none"
     inkscape:label="#SVGRepo_iconCarrier">
    <title
       id="title92">bookmark-solid</title>
    <rect
       x="0"
       y="0"
       width="36"
       height="36"
       fill-opacity="0"
       id="rect96" />
    <g
       style="fill:#000000"
       id="g1736"
       transform="matrix(0.05429721,0,0,0.05429721,-36.103124,-4.0395563)">
      <g
         id="SVGRepo_bgCarrier-5"
         stroke-width="0" />
      <g
         id="SVGRepo_tracerCarrier-1"
         stroke-linecap="round"
         stroke-linejoin="round" />
    </g>
    <g
       inkscape:groupmode="layer"
       id="layer2"
       inkscape:label="Layer 1"
       style="display:inline">
      <g
         id="g1739"
         style="display:inline"
         transform="translate(0.47244918,0.19954036)">
        <path
           class="clr-i-solid clr-i-solid-path-1"
           d="m 29.196416,2.1736119 h -16 c -1.104569,0 -2,0.8954305 -2,2 V 32.103612 c -0.0014,1.786537 2.161918,2.678442 3.42,1.41 l 6.54,-6.52 6.63,6.6 c 1.262181,1.254694 3.411412,0.359706 3.41,-1.42 V 4.1736119 c 0,-1.1045695 -0.89543,-2 -2,-2 z"
           id="path94"
           sodipodi:nodetypes="ssscccccss"
           style="stroke-width:0.99999;stroke-miterlimit:4;stroke-dasharray:none" />
      </g>
    </g>
  </g>
  <g
     inkscape:groupmode="layer"
     id="layer3"
     inkscape:label="Layer 2"
     style="display:inline">
    <g
       id="SVGRepo_iconCarrier-7"
       transform="matrix(0.05308925,0,0,0.05308925,-40.538429,-4.5196835)"
       style="fill:#000000">
      <style
         type="text/css"
         id="style1098"> .st0{fill:#efcd35;} </style>
      <g
         id="g1102">
        <path
           id="path1140"
           style="fill:#efcd35;fill-opacity:1;stroke:#000000;stroke-width:0;stroke-linecap:butt;stroke-linejoin:miter;stroke-miterlimit:4;stroke-dasharray:none;stroke-opacity:1"
           d="m 1050.7159,150.54411 c -6.2803,0 -11.9121,3.84208 -14.2271,9.68414 l -56.55988,143.94959 c -2.17439,5.52531 -7.36806,9.29421 -13.29823,9.66333 l -154.38694,9.30015 c -6.24693,0.38581 -11.64778,4.55895 -13.59593,10.54151 -1.94814,5.9659 -0.019,12.50933 4.82272,16.51042 l 119.42215,98.2974 c 4.57742,3.77245 6.57974,9.87827 5.06981,15.63221 l -38.84084,149.7041 c -1.579,6.08977 0.71686,12.51055 5.78728,16.19485 5.08708,3.70102 11.92762,3.89155 17.21,0.52395 L 1042.4875,547.3328 c 5.018,-3.19133 11.4388,-3.19133 16.4568,0 l 130.3537,83.21296 c 5.299,3.3676 12.1217,3.17707 17.1921,-0.52395 5.0871,-3.68671 7.3848,-10.10749 5.8081,-16.19485 l -38.8259,-149.7041 c -1.5076,-5.75635 0.4924,-11.86216 5.0698,-15.63221 l 119.4221,-98.2974 c 4.8585,-4.00109 6.7703,-10.54452 4.8198,-16.51042 -1.9458,-5.98256 -7.3312,-10.1557 -13.6138,-10.54151 l -154.3869,-9.30015 c -5.9469,-0.36675 -11.1376,-4.13802 -13.2953,-9.66333 l -56.545,-143.94959 c -2.315,-5.82774 -7.9468,-9.68414 -14.2271,-9.68414 z" />
      </g>
    </g>
  </g>
</svg>
